<?xml version="1.0" encoding="UTF-8"?>
<svg width="2048" height="256" xmlns="http://www.w3.org/2000/svg">
<path d="m51.996 20.439v30.91h62.338v196.96h35.15v-196.96h65.311v-30.91h-162.8z"/>
<path d="m299.15 75.246c-6.4992 0-12.722 1.1089-18.785 3.3281-6.0237 2.2193-11.571 5.4296-16.604 9.6699-4.9933 4.2007-9.1963 9.2732-12.645 15.139-0.82806 1.4347-1.5858 2.9167-2.2793 4.4414l0.37695-28.535h-37.605v169.22h36.895v-89.047c0-9.4319 1.2685-17.516 3.8047-24.293 2.5363-6.7766 5.9842-12.326 10.344-16.725 4.3592-4.3989 9.3116-7.6072 14.859-9.668 5.5482-2.1003 11.294-3.1328 17.199-3.1328 4.3989 0 8.4013 0.63282 12.008 1.8613 3.5667 1.2682 7.1733 3.1318 10.779 5.668 2.9722 2.6552 4.8363 4.9528 5.6289 6.8945 0.79257 1.9418 1.5059 3.8844 2.1797 5.8262l3.0117 1.4668 1.3066-3.1309 15.496-29.961c-6.2218-6.4993-13.159-11.294-20.729-14.385-7.5693-3.0912-15.971-4.6367-25.244-4.6367l0.00195-0.001953z"/>
<path d="m418.56 75.482c-11.611 0-23.026 1.9425-34.201 5.8262-11.136 3.9233-21.241 10.184-30.316 18.863l19.379 22.074c6.6181-6.737 13.514-11.413 20.727-14.068 7.2126-2.6553 14.741-4.002 22.588-4.002 9.5904 0 17.556 1.6644 23.857 4.9141 6.3408 3.2496 11.097 8.9947 14.387 17.158 1.9829 5.0057 3.3521 11.268 4.125 18.762-1.0043-0.0729-2.0017-0.16251-3.0156-0.21485-3.8044-0.23754-7.4116-0.35505-10.74-0.43554-3.3289-0.0776-6.3803-0.11719-9.1543-0.11719-14.108 0-26.79 1.5043-38.084 4.4766-11.294 2.9722-20.924 7.1342-28.85 12.523-7.8863 5.3896-13.95 11.809-18.15 19.299-4.161 7.4504-6.2617 15.774-6.2617 24.85 0 13.91 5.1509 25.203 15.494 33.961 10.304 8.7581 24.887 13.117 43.672 13.117 5.0726 0 10.067-0.39693 14.941-1.1894 4.8348-0.83223 9.5099-2.1399 14.027-3.9629 4.4781-1.823 8.6797-4.3592 12.604-7.6484 3.9233-3.2496 7.4508-7.292 10.621-12.127v20.768h38.004v-94.795c0-15.139-1.902-27.741-5.7461-37.768-3.8044-10.026-9.1536-17.99-16.01-23.855-6.8163-5.8652-14.822-10.067-24.016-12.604-9.1544-2.5362-19.102-3.8047-29.881-3.8047zm17.912 94.479c3.0911 0 6.499 0.0403 10.225 0.1582 3.7648 0.0794 7.53 0.23592 11.295 0.47461 0.51801 0.027 0.98392 0.0787 1.4902 0.11133-0.46639 6.6617-1.3847 12.737-2.8379 18.119-2.14 7.9259-5.3495 14.584-9.5898 19.895-4.28 5.3104-9.4734 9.2318-15.576 11.848-6.1029 2.6154-13.195 3.9238-21.24 3.9238-4.1215 0-7.9654-0.43595-11.492-1.2285-3.527-0.8322-6.6195-2.1398-9.1953-3.8438-2.5759-1.7437-4.5955-4.1214-6.1016-7.0938-1.4664-3.0118-2.2207-6.6174-2.2207-10.857 0-5.0329 1.1102-9.4713 3.3691-13.355 2.2193-3.9233 5.6263-7.2139 10.145-9.8691 4.5574-2.6948 10.265-4.7556 17.16-6.1426 6.9352-1.4264 15.138-2.1387 24.57-2.1387z"/>
<path d="m603.05 75.682c-12.325 0-23.738 2.2995-34.279 6.8965-10.502 4.5574-19.616 10.858-27.344 18.902-7.7278 8.0448-13.712 17.477-18.031 28.336-4.2801 10.819-6.4199 22.51-6.4199 35.033 0 12.761 2.1399 24.491 6.4199 35.111 4.3196 10.66 10.303 19.894 18.031 27.74 7.7278 7.8467 16.842 13.95 27.344 18.27 10.541 4.3197 21.995 6.498 34.359 6.498 11.889 0 23.5-2.2178 34.834-6.6562 11.334-4.4385 21.36-11.414 30.158-20.965l-20.33-23.461c-4.0818 4.8744-8.48 8.8372-13.156 11.889-4.6763 3.0515-9.5111 5.2706-14.465 6.6973-4.9933 1.4661-10.106 2.1797-15.416 2.1797-6.9352 0-13.515-1.3875-19.697-4.2012-6.2218-2.8137-11.61-6.736-16.207-11.809-4.5574-5.0726-8.2042-11.175-10.859-18.309-2.6949-7.1333-4.041-15.059-4.041-23.777 0-9.2337 1.3077-17.478 3.9629-24.77 2.6156-7.3315 6.2219-13.514 10.779-18.547 4.5574-5.033 9.7088-8.8774 15.455-11.572 5.7463-2.695 11.809-4.002 18.189-4.002 7.5692 0 14.228 0.87164 20.014 2.6152 5.8256 1.7437 11.135 4.9147 16.01 9.5117 2.7344 3.0118 4.3997 5.4688 4.9941 7.3711 0.63411 1.9022 0.98786 3.8037 1.0684 5.7852l2.418 2.1016 2.418-2.5371 20.805-22.072c-6.8955-10.145-16.05-18.071-27.424-23.738s-24.57-8.5215-39.59-8.5215z"/>
<path d="m689.68 3.873v244.44h36.736v-63.486l16.525-15.812 61.467 80.764 42.602-1.623-78.348-101.49 68.4-66.301h-16.367c-1.5059 0-3.2894-0.040295-5.3106-0.1582-2.0211-0.11906-4.0414-0.27738-6.0625-0.43555-2.0211-0.19814-4.0036-0.39598-5.9453-0.71289-1.9418-0.27723-3.8033-0.59457-5.5469-0.95117l-71.414 67.807v-125.39c0-4.1215 0.19809-7.0536 0.55469-8.7578 0.3566-1.7041 1.2302-3.2895 2.6172-4.7559v-3.1309h-39.908z"/>
<path d="m996.57 20.32-48.744 107.12-48.229-106.76h-30.754v227.63h31.506v-162.6l37.848 85.797h16.723l40.264-86.471v163.27h31.861v-227.99h-30.475z"/>
<path d="m1132.1 75.246c-10.938 0-21.241 2.0203-30.871 6.0625s-17.992 9.9087-25.125 17.518c-7.1333 7.6089-12.761 17.001-16.883 28.098-4.1214 11.096-6.1816 23.738-6.1816 37.846 0 13.91 2.0607 26.314 6.1426 37.252 4.0817 10.938 9.8674 20.091 17.357 27.502 7.49 7.4107 16.328 13.038 26.553 16.922 10.224 3.8838 21.439 5.8262 33.644 5.8262h2e-3c8.3619 0 16.288-0.9518 23.738-2.8144 7.4503-1.9022 14.385-4.8733 20.766-8.9551 6.4199-4.1215 12.206-9.1939 17.318-15.297l-19.024-18.469c-3.7252 4.0422-7.8067 7.292-12.166 9.8281-4.3592 2.4966-8.9562 4.3206-13.791 5.3906-4.7952 1.1098-9.9471 1.6641-15.416 1.6641-6.3803 0-12.483-0.99061-18.309-3.0117-5.7859-1.9814-11.017-5.0328-15.574-9.1543-4.597-4.1215-8.3224-9.4316-11.176-15.852-2.893-6.4596-4.5572-14.149-5.0723-22.986h114.69c0.237-2.2589 0.3956-4.8729 0.4766-7.8848 0.0779-2.9722 0.1172-5.6678 0.1172-8.0059 0-13.633-1.9032-25.561-5.668-35.785-3.8044-10.224-8.9168-18.745-15.416-25.482-6.4596-6.737-14.027-11.81-22.627-15.139-8.6393-3.3684-17.795-5.0723-27.504-5.0723zm-1.8222 28.137c5.8255 0 11.016 0.91141 15.613 2.7344 4.5971 1.8626 8.52 4.5572 11.77 8.2031 3.2496 3.6459 5.7075 8.0064 7.4511 13.158 1.7436 5.1518 2.5762 11.017 2.5762 17.635h-78.824c0.9114-7.2126 2.6161-13.394 5.1523-18.625 2.4967-5.2311 5.5874-9.5517 9.3125-13.039 3.6856-3.4874 7.8079-6.0236 12.365-7.6484 4.5574-1.5851 9.4321-2.418 14.584-2.418z"/>
<path d="m1278.3 3.1992c-6.8163-1e-7 -12.445 2.1804-16.844 6.5-4.4386 4.3592-6.6172 9.8272-6.6172 16.445 0 6.1822 2.2981 11.534 6.8555 16.012 4.597 4.4781 10.106 6.7363 16.605 6.7363 6.2614 0 11.809-2.2582 16.564-6.7363 4.716-4.4782 7.0937-9.8295 7.0937-16.012s-2.3778-11.572-7.0937-16.09c-4.7555-4.5573-10.303-6.8555-16.564-6.8555zm-56.195 76.09v28.77h39.947v111.44h-42.008v28.811h116.95v-28.811h-38.402v-140.21h-76.484z"/>
<path d="m1421.2 75.246c-13.514 0-25.125 2.0613-34.834 6.1035-9.7092 4.0818-17.199 9.5902-22.391 16.525-5.2311 6.9352-7.8457 14.979-7.8457 24.094 0 8.8374 2.536 16.606 7.5293 23.264 5.033 6.6578 12.166 12.363 21.44 17.158 9.2336 4.7556 20.091 8.8784 32.574 12.326 7.3314 2.14 13.553 4.24 18.705 6.3008 5.1915 2.0211 9.353 4.0414 12.523 6.0625 3.2099 1.9815 5.5487 4.1614 7.0547 6.5391 1.5061 2.3382 2.2988 5.1128 2.2988 8.2832 0 4.2007-1.4669 7.9267-4.3203 11.137-2.8929 3.2496-6.9349 5.7851-12.166 7.5684-5.2311 1.823-11.652 2.6953-19.182 2.6953-10.938 0-20.171-1.5071-27.74-4.5586-7.5692-3.0515-14.267-7.132-20.053-12.244-2.774-2.8137-4.5173-5.2712-5.2305-7.332-0.7132-2.0607-1.3469-4.0416-1.9414-5.9043l-2.6152-1.5859-1.9024 3.1309-16.963 30.713c6.6181 6.1426 13.872 11.176 21.719 15.1 7.8863 3.9629 16.366 6.8945 25.441 8.7969 9.0751 1.9023 18.665 2.8535 28.691 2.8535 15.297 0 28.137-2.4581 38.52-7.293 10.383-4.8348 18.191-11.373 23.422-19.537 5.2311-8.2033 7.8457-17.001 7.8457-26.473 0-8.5204-1.9804-15.931-5.9434-22.271-3.9629-6.3407-10.225-11.849-18.785-16.564-8.56-4.6763-19.734-8.9573-33.525-12.762-11.017-2.9722-19.696-5.824-26.076-8.5586-6.3803-2.774-10.938-5.5875-13.633-8.4805-2.6949-2.8929-4.043-6.024-4.043-9.3926 0-5.984 3.1704-10.462 9.5508-13.395 6.3803-2.8929 13.911-4.3594 22.59-4.3594 6.3804 0 12.799 0.95084 19.219 2.8926 6.42 1.9022 12.246 4.835 17.477 8.7188 2.774 2.6552 4.5974 4.914 5.4297 6.6973 0.8719 1.7833 1.4253 3.6462 1.664 5.5879l2.3789 2.0996 2.4161-2.9316 18.508-24.848c-4.3196-4.3592-8.9167-8.2049-13.791-11.494-4.8348-3.2893-10.026-6.0222-15.574-8.1621-5.5878-2.1399-11.532-3.7659-17.912-4.8359-6.3804-1.1098-13.238-1.6641-20.529-1.6641z"/>
<path d="m1578.6 33.16-3.4883 0.35547-37.529 4.7559-1.582 41.018h-35.828l-0.2774 29.008h34.986l-1.9747 51.162c-0.555 16.843 6e-4 31.11 1.7442 42.801 1.7041 11.691 4.7546 21.2 9.0742 28.492 4.3593 7.2522 10.066 12.564 17.199 15.893 7.0937 3.2892 15.694 4.9531 25.721 4.9531 10.383 0 20.132-1.5855 29.207-4.7559 9.1147-3.1704 17.833-7.8058 26.115-13.869l-8.3223-26.988c-5.9445 4.4781-12.048 8.3218-18.23 11.492-6.2219 3.1704-13.274 4.7559-21.121 4.7559-5.9444 0-10.938-1.7442-14.98-5.1523-4.0422-3.4478-6.9361-9.7485-8.6797-18.863-1.7439-9.1544-2.2581-22.035-1.5449-38.719l2.4101-51.201h55.766l0.3164-29.008h-55.869l2.291-29.088c0.3962-4.1611 1.0301-7.0946 1.9415-8.7988 0.9114-1.7041 1.9023-3.4071 3.0117-5.1113l-0.3555-3.1309z"/>
<path d="m1732 75.246c-10.938 0-21.241 2.0203-30.871 6.0625-9.6299 4.0422-17.992 9.9087-25.125 17.518-7.1333 7.6089-12.761 17.001-16.883 28.098-4.1214 11.096-6.1817 23.738-6.1817 37.846 0 13.91 2.0607 26.314 6.1426 37.252 4.0818 10.938 9.8674 20.091 17.357 27.502 7.49 7.4107 16.326 13.038 26.551 16.922 10.224 3.8838 21.441 5.8262 33.646 5.8262 8.3618 0 16.288-0.9518 23.738-2.8144 7.4503-1.9022 14.385-4.8733 20.766-8.9551 6.42-4.1215 12.206-9.1939 17.318-15.297l-19.022-18.469c-3.7252 4.0422-7.8067 7.292-12.166 9.8281-4.3592 2.4966-8.9563 4.3206-13.791 5.3906-4.7952 1.1098-9.9473 1.6641-15.416 1.6641-6.3804 0-12.483-0.99061-18.309-3.0117-5.7859-1.9814-11.017-5.0328-15.574-9.1543-4.5971-4.1215-8.3224-9.4316-11.176-15.852-2.893-6.4596-4.5572-14.149-5.0722-22.986h114.69c0.237-2.2589 0.3936-4.8729 0.4746-7.8848 0.0779-2.9722 0.1191-5.6678 0.1191-8.0059 0-13.633-1.9031-25.561-5.6679-35.785-3.8044-10.224-8.9169-18.745-15.416-25.482-6.4596-6.737-14.029-11.81-22.629-15.139-8.6392-3.3684-17.793-5.0723-27.502-5.0723zm-1.8223 28.137c5.8255 0 11.016 0.91141 15.613 2.7344 4.5971 1.8626 8.5199 4.5572 11.77 8.2031 3.2497 3.6459 5.7076 8.0064 7.4512 13.158 1.7436 5.1518 2.5762 11.017 2.5762 17.635h-78.824c0.9115-7.2126 2.6162-13.394 5.1523-18.625 2.4967-5.2311 5.5873-9.5517 9.3125-13.039 3.6855-3.4874 7.8078-6.0236 12.365-7.6484 4.5574-1.5851 9.4321-2.418 14.584-2.418z"/>
<path d="m1917.4 75.246c-6.4993 0-12.72 1.1089-18.783 3.3281-6.0236 2.2193-11.573 5.4296-16.606 9.6699-4.9933 4.2007-9.1947 9.2735-12.642 15.139-0.8277 1.4339-1.5841 2.9156-2.2774 4.4395l0.377-28.533h-37.607l-4e-3 169.22h36.896v-89.047c0-9.4319 1.2682-17.516 3.8047-24.293 2.5361-6.7766 5.9824-12.326 10.342-16.725 4.3592-4.3989 9.313-7.6072 14.861-9.668 5.5483-2.1003 11.294-3.1309 17.199-3.1309 4.3988 0 8.4015 0.63279 12.008 1.8613 3.5668 1.2682 7.1731 3.1318 10.779 5.668 2.973 2.6552 4.8332 4.9528 5.6269 6.8945 0.7937 1.9418 1.5068 3.8844 2.1797 5.8262l3.0137 1.4668 1.3086-3.1309 15.494-29.961c-6.2218-6.4993-13.157-11.294-20.726-14.385-7.5694-3.0912-15.971-4.6367-25.244-4.6367z"/>
<path d="m1960 16v10.352h14.564v48.064h11.656v-48.064h14.363v-10.352h-40.584zm44.234 0v58.416h11.113v-34.082l6.8398 14.684h4.7344l7.7636-15.045v34.443h11.314v-58.416h-8.8262l-12.098 24.895-11.475-24.895h-9.3672z"/>
</svg>
